<svg fill="none" height="64" viewBox="0 0 58 64" width="58" xmlns="http://www.w3.org/2000/svg" xmlns:xlink="http://www.w3.org/1999/xlink"><clipPath id="a"><path d="m0 0h57.088v64h-57.088z"/></clipPath><g clip-path="url(#a)"><path d="m46.559 33.709c-.0284-5.2266 2.3356-9.1714 7.1206-12.0766-2.6773-3.8309-6.7218-5.9386-12.0623-6.3516-5.0556-.3987-10.5812 2.948-12.6034 2.948-2.1362 0-7.0352-2.8056-10.8803-2.8056-7.9466.1282-16.39166 6.3374-16.39166 18.9693 0 3.7312.68358 7.5858 2.05074 11.5639 1.82287 5.2265 8.40232 18.0436 15.26662 17.83 3.5887-.0855 6.1237-2.5492 10.7948-2.5492 4.5287 0 6.8785 2.5492 10.8803 2.5492 6.9212-.0997 12.874-11.749 14.6115-16.9898-9.2853-4.372-8.7869-12.8171-8.7869-13.0876zm-8.0605-23.3841c3.8879-4.61417 3.5318-8.81533 3.4179-10.3249-3.4321.199377-7.4054 2.33556-9.6698 4.97018-2.4922 2.81976-3.959 6.30882-3.6457 10.23942 3.7169.2848 7.1063-1.6235 9.8976-4.8847z" fill="#000"/></g></svg>