<svg fill="none" height="64" viewBox="0 0 330 64" width="330" xmlns="http://www.w3.org/2000/svg" xmlns:xlink="http://www.w3.org/1999/xlink"><clipPath id="a"><path d="m0 0h329.218v64h-329.218z"/></clipPath><g clip-path="url(#a)"><path d="m20.856 62.8771h-12.4053v-30.9248h-8.4507v-10.0685h8.45037v-7.1644c0-8.48989 3.73763-14.578775 16.10933-14.578775 2.6166 0 6.7246.527407 6.7246.527407v9.349168h-4.3148c-4.3963 0-6.1129 1.3373-6.1129 5.0344v6.8322h10.2631l-.9139 10.0685h-9.3495zm28.4642-41.7979c-.1808 0-.3668.0066-.5508.0112-11.5029 0-16.7658 8.6525-16.7658 20.935 0 15.4726 6.8267 21.6652 16.8557 21.6652 5.7379 0 9.5078-2.4152 11.7991-6.9222v6.113h11.7992v-40.9933h-11.7992v6.3042c-1.8709-4.056-5.7461-7.065-11.3382-7.1131zm3.0001 9.6866c4.8313 0 7.7311 3.3699 7.7311 9.1019l.0112 5.8545c0 3.8634-2.3951 8.3832-7.7423 8.3832-8.2205 0-8.001-8.8764-8.001-11.8328 0-9.9447 4.38-11.5068 8.001-11.5068zm24.9024 11.6211c0-4.9814-.2383-21.281 20.9975-21.281 8.5248 0 12.0838 2.7104 12.0838 2.7104l-2.861 8.8735s-3.555-1.9576-8.1867-1.9576c-5.9328 0-9.7185 3.4394-9.7185 9.4907l.0066 4.3391c0 5.8147 3.6526 9.6962 9.7241 9.6962 4.2195 0 8.1095-1.976 8.1095-1.976l2.853 8.6881s-3.254 2.7275-11.9512 2.7275c-20.2199 0-21.0568-14.6238-21.0568-21.3109zm102.2643-21.2965c11.503 0 16.849 8.6525 16.849 20.935 0 15.4726-6.827 21.6652-16.856 21.6652-5.738 0-9.979-2.4148-12.271-6.9222v6.113l-11.65-.0046v-61.48976l12.37-1.078843v27.328703c1.785-4.7812 7.652-6.5465 11.558-6.5465zm-3.468 9.6754c-4.831 0-8.09 3.3699-8.09 9.1019l-.012 5.8545c-.007 3.8634 2.257 8.3832 8.102 8.3832 8.221 0 8.001-8.8764 8.001-11.8328 0-9.9447-4.379-11.5068-8.001-11.5068zm-44.252-9.6415c-13.047 0-19.935 7.1134-19.935 19.7548v2.3486c0 16.4072 9.673 20.6314 21.205 20.6314 11.209 0 16.283-3.1351 16.283-3.1351l-2.315-8.349s-5.968 2.5393-12.485 2.5393c-6.755 0-9.661-1.7218-10.405-8.214h26.193v-6.6979c0-13.7126-7.73-18.8784-18.541-18.8784zm.315 8.3602c4.516 0 7.442 2.7694 7.282 9.1921h-15.227c.264-6.7598 3.42-9.1918 7.945-9.1918zm88.919-8.4165c-13.398 0-20.451 7.5503-20.451 21.0809 0 18.5646 12.158 21.5529 20.474 21.5529 12.173 0 20.272-6.5538 20.272-21.3844 0-15.436-9.106-21.2494-20.295-21.2494zm-.168 9.7314c5.891 0 8.226 4.4092 8.226 9.4281v4.3151c0 6.08-3.267 9.5967-8.248 9.5967-4.66 0-7.934-3.2895-7.934-9.5967v-4.3151c0-6.7265 3.896-9.4281 7.956-9.4281zm45.106-9.7314c-13.398 0-20.452 7.5503-20.452 21.0809 0 18.5646 12.159 21.5529 20.474 21.5529 12.173 0 20.272-6.5538 20.272-21.3844 0-15.436-9.106-21.2494-20.294-21.2494zm-.168 9.7314c5.891 0 8.225 4.4092 8.225 9.4281v4.3151c0 6.08-3.266 9.5967-8.248 9.5967-4.659 0-7.933-3.2895-7.933-9.5967v-4.3151c0-6.7265 3.896-9.4281 7.956-9.4281zm25.137 32.0777v-61.49006l12.406-1.078843v41.214503l12.308-19.6389h13.102l-12.84 20.3401 13.334 20.6532h-13.139l-12.765-20.054v20.054z" fill="#1877f2"/></g></svg>