<svg fill="none" height="64" viewBox="0 0 197 64" width="197" xmlns="http://www.w3.org/2000/svg" xmlns:xlink="http://www.w3.org/1999/xlink"><clipPath id="a"><path d="m0 0h196.078v64h-196.078z"/></clipPath><g clip-path="url(#a)"><path d="m24.1479.00585938h1.7436c6.0535.13159662 12.0082 2.56613062 16.2851 6.87590062-1.5792 1.61206-3.1912 3.15834-4.7375 4.77034-2.4016-2.17131-5.2967-3.84916-8.455-4.44135-4.6717-.98697-9.7053-.09869-13.6203 2.56613-4.2768 2.79642-7.17195 7.53392-7.79703 12.60032-.69088 5.0007.72378 10.2645 3.98083 14.1466 3.1254 3.7834 7.8957 6.1521 12.8306 6.3166 4.6059.2632 9.4091-1.1514 12.7648-4.3755 2.632-2.2701 3.8492-5.7245 4.244-9.0802-5.4612 0-10.9225.0329-16.3837 0v-6.7772h22.9964c1.1844 7.2707-.5264 15.4626-6.0534 20.6606-3.6847 3.6847-8.7841 5.8561-13.9821 6.2838-5.0336.4934-10.2316-.4606-14.7059-2.8952-5.36254-2.8622-9.63942-7.6983-11.74496-13.3899-1.973946-5.2309-2.006845-11.1528-.1645-16.4166 1.67786-4.8033 4.90196-9.04726 9.04726-12.00818 3.9808-2.92801 8.8169-4.540069 13.7518-4.83616062z" fill="#3780ff"/><path d="m156.073 1.7168h7.041v46.9799c-2.336 0-4.705.0329-7.041-.0329.033-15.6271 0-31.287 0-46.947z" fill="#38b137"/><path d="m63.6597 18.0028c4.3427-.8225 9.0473.0987 12.6333 2.6977 3.257 2.3029 5.527 5.9218 6.2179 9.8697.8883 4.573-.2303 9.5736-3.1912 13.1925-3.1912 4.0466-8.4222 6.2179-13.5215 5.8889-4.6717-.2631-9.2118-2.599-11.9753-6.4153-3.1254-4.211-3.8821-10.0013-2.1713-14.9361 1.7107-5.2968 6.5469-9.3434 12.0081-10.2974zm.987 6.2508c-1.7765.4606-3.4215 1.4804-4.6059 2.928-3.1912 3.8163-2.9938 10.0342.5264 13.5873 2.0069 2.0398 5.0336 2.9938 7.83 2.4345 2.599-.4605 4.8691-2.2042 6.1192-4.5071 2.1714-3.915 1.5463-9.3105-1.7765-12.3701-2.1385-1.9739-5.2639-2.7964-8.0932-2.0726z" fill="#fa3913"/><path d="m98.5325 18.0013c4.9675-.9541 10.3965.4277 14.1135 3.915 6.054 5.4283 6.712 15.5941 1.546 21.8449-3.125 3.9479-8.191 6.1193-13.192 5.889-4.7705-.1316-9.475-2.5004-12.3044-6.4153-3.1912-4.3098-3.8821-10.2316-2.0726-15.2652 1.8094-5.1322 6.5469-9.0472 11.9095-9.9684zm.9869 6.2508c-1.7765.4606-3.4215 1.4805-4.6058 2.8951-3.1584 3.7505-3.0268 9.8697.3619 13.4557 2.0068 2.1385 5.1325 3.1912 8.0275 2.5991 2.566-.4935 4.869-2.2043 6.119-4.5072 2.139-3.9479 1.513-9.3433-1.842-12.4029-2.139-1.974-5.264-2.7636-8.0606-2.0398z" fill="#fcbd06"/><path d="m128.109 19.9085c3.783-2.3687 8.817-3.0267 12.897-.987 1.283.5593 2.335 1.5134 3.355 2.4675.033-.8883 0-1.8095.033-2.7307 2.204.0329 4.409 0 6.646.0329v29.0171c-.033 4.3755-1.152 9.0143-4.31 12.2055-3.454 3.5202-8.751 4.6059-13.522 3.8821-5.099-.7567-9.54-4.4743-11.514-9.1788 1.974-.9541 4.046-1.7108 6.086-2.5991 1.152 2.6978 3.487 5.0007 6.415 5.5271s6.317-.1974 8.225-2.6319c2.04-2.5004 2.04-5.9219 1.941-8.9815-1.513 1.4805-3.257 2.7964-5.362 3.2899-4.573 1.2831-9.607-.2961-13.127-3.3886-3.553-3.0925-5.659-7.8629-5.461-12.6003.098-5.3626 3.125-10.5278 7.698-13.3242zm6.81 4.2111c-2.007.329-3.882 1.4476-5.165 2.9938-3.092 3.6847-3.092 9.5737.033 13.1926 1.776 2.1384 4.639 3.3228 7.402 3.0267 2.599-.2632 5.001-1.9082 6.284-4.1782 2.171-3.8492 1.809-9.0802-1.119-12.4359-1.809-2.0726-4.704-3.0925-7.435-2.599z" fill="#3780ff"/><path d="m171.569 21.5874c3.948-3.6847 10.034-4.9349 15.101-2.9939 4.803 1.8095 7.863 6.3825 9.409 11.087-7.139 2.9609-14.245 5.889-21.385 8.8499.987 1.8752 2.501 3.586 4.541 4.2768 2.862 1.0199 6.283.658 8.685-1.2501.954-.7238 1.711-1.6779 2.434-2.599 1.81 1.2172 3.619 2.4016 5.429 3.6188-2.566 3.8492-6.876 6.547-11.515 6.9746-5.132.6251-10.593-1.3488-13.916-5.3625-5.462-6.3166-4.935-16.9101 1.217-22.6016zm3.52 6.0863c-1.118 1.612-1.579 3.586-1.546 5.527 4.77-1.9739 9.541-3.9479 14.311-5.9547-.789-1.8423-2.698-2.9609-4.639-3.257-3.125-.5593-6.382 1.1186-8.126 3.6847z" fill="#fa3913"/></g></svg>