<svg fill="none" height="64" viewBox="0 0 211 64" width="211" xmlns="http://www.w3.org/2000/svg" xmlns:xlink="http://www.w3.org/1999/xlink"><clipPath id="a"><path d="m0 0h210.804v64h-210.804z"/></clipPath><g clip-path="url(#a)"><path d="m0 45.269v-44.327534h7.7863v44.327334h-7.7863v.0003zm27.7188-32.158c-9.9838 0-16.8923 7.676-16.8923 16.462 0 9.8054 7.516 16.5608 16.9698 16.5608 8.9723 0 16.7583-6.6305 16.7583-16.582 0-8.3679-6.452-16.4407-16.8358-16.4407zm-.0919 7.5118c5.2248 0 9.0702 4.0667 9.0702 8.9784 0 5.2079-4.24 9.0067-8.9294 9.0067-5.5407 0-9.0279-4.3915-9.0279-8.9926.0002-5.0432 3.9372-8.9926 8.8871-8.9926zm36.4914-7.5118c-9.9834 0-16.8922 7.676-16.8922 16.462 0 9.8054 7.516 16.5608 16.9699 16.5608 8.9722 0 16.7581-6.6305 16.7581-16.582 0-5.8599-2.5377-8.4599-2.5377-8.4599l2.1584-.7402v-6.3195h-11.0592s-2.3978-.9212-5.3973-.9212zm-.0916 7.5118c5.2245 0 9.0702 4.0667 9.0702 8.9784 0 5.2079-4.24 9.0067-8.9293 9.0067-5.5408 0-9.0278-4.3915-9.0278-8.9926.0001-5.0432 3.9371-8.9926 8.8869-8.9926zm9.0152 26.8131c0 5.2076-4.2398 9.035-8.9292 9.035-5.541 0-9.0421-4.4343-9.0421-9.035h-7.8994c0 9.8055 7.5157 16.5605 16.9698 16.5605 8.9722 0 16.7582-6.6097 16.7582-16.5605zm11.031-2.1669v-31.2368h7.7868v31.2368zm15.3477 0v-24.24h-4.1755v-6.9968h4.1755v-9.59231h7.7864v9.59231h4.288v6.9968h-4.288v24.24zm-6.3142-40.10866c0 2.84768-2.3086 5.15626-5.1562 5.15626-2.8481 0-5.1564-2.30872-5.1564-5.15626 0-2.84782 2.3086-5.15643375 5.1564-5.15643375 2.8477 0 5.1562 2.30861375 5.1562 5.15643375zm35.8946 7.92956c-10.03 0-16.497 7.6797-16.497 16.7653 0 9.3888 6.488 16.2998 16.66 16.2998 9.488 0 14.155-5.9249 14.155-5.9249l-5.205-5.2124s-3.93 4.2392-8.852 4.2392c-4.102 0-7.382-2.29-8.527-6.4889h24.263v-2.144c0-8.5556-4.952-17.5341-15.997-17.5341zm-.246 6.8557c3.587 0 7.255 1.919 8.076 6.5029h-16.307c.645-3.2223 3.464-6.5029 8.231-6.5029zm35.719 26.2136c-10.058 0-16.913-7.6617-16.913-16.6949 0-9.3224 7.747-16.3802 16.881-16.3802 8.831 0 13.351 6.2337 13.351 6.2337l-5.432 5.4074s-3.147-4.0655-7.956-4.0655c-5.33 0-8.974 4.0774-8.974 8.9241 0 5.1175 3.876 9.0442 8.914 9.0442 4.887 0 8.008-4.0589 8.008-4.0589l5.487 5.4043s-4.477 6.1859-13.365 6.1859h-.001v-.0003zm16.199-.8676v-44.462812h7.786v16.335912s2.982-4.0806 9.467-4.0806c8.154 0 12.878 6.061 12.878 13.813v18.3944h-7.787v-17.2176c0-5.2079-3.242-7.3687-6.834-7.3687-4.093 0-7.724 2.3291-7.724 7.7715v16.8149z" fill="#000"/></g></svg>