<svg fill="none" height="64" viewBox="0 0 300 64" width="300" xmlns="http://www.w3.org/2000/svg" xmlns:xlink="http://www.w3.org/1999/xlink"><clipPath id="a"><path d="m0 0h299.625v64h-299.625z"/></clipPath><g clip-path="url(#a)"><path d="m299.625 28.9529v-5.2694h-6.543v-8.1918l-.22.0678-6.147 1.8805-.121.0368v6.207h-9.7v-3.4578c0-1.6101.36-2.8422 1.069-3.6639.705-.8119 1.712-1.2246 2.998-1.2246.924 0 1.881.2176 2.844.6469l.241.1078v-5.5493l-.114-.0418c-.898-.3229-2.12-.4855-3.634-.4855-1.909 0-3.643.4154-5.155 1.2385-1.513.8243-2.704 2.0011-3.538 3.4973-.831 1.4944-1.252 3.2205-1.252 5.1305v3.8016h-4.557v5.2694h4.557v22.1989h6.541v-22.1989h9.7v14.107c0 5.8099 2.741 8.7542 8.146 8.7542.888 0 1.822-.1041 2.777-.3078.971-.2093 1.633-.4183 2.023-.6415l.086-.051v-5.318l-.266.1759c-.355.2365-.797.4298-1.316.5736-.52.1464-.955.2197-1.292.2197-1.266 0-2.203-.3411-2.784-1.0144-.588-.6794-.886-1.8675-.886-3.5295v-12.9682zm-48.436 17.513c-2.374 0-4.246-.7872-5.565-2.3379-1.327-1.5585-1.999-3.7805-1.999-6.6035 0-2.9127.672-5.1923 2-6.7783 1.32-1.5756 3.174-2.3753 5.511-2.3753 2.268 0 4.073.7637 5.367 2.2712 1.299 1.5153 1.959 3.7767 1.959 6.7232 0 2.9828-.62 5.274-1.843 6.8067-1.215 1.5211-3.042 2.2939-5.43 2.2939zm.291-23.4441c-4.529 0-8.127 1.3272-10.692 3.9448-2.563 2.6179-3.863 6.2406-3.863 10.7686 0 4.3007 1.269 7.76 3.771 10.2802 2.503 2.521 5.908 3.7981 10.122 3.7981 4.39 0 7.916-1.3457 10.48-3.9996 2.564-2.6509 3.863-6.2394 3.863-10.6616 0-4.368-1.219-7.853-3.624-10.3564-2.406-2.5046-5.79-3.7741-10.057-3.7741zm-25.101 0c-3.081 0-5.63.7881-7.577 2.342-1.958 1.5631-2.952 3.6132-2.952 6.0939 0 1.2895.215 2.435.637 3.4066.424.9747 1.081 1.833 1.954 2.5532.867.7145 2.204 1.4629 3.976 2.2243 1.49.613 2.601 1.1315 3.307 1.5402.689.4006 1.179.8032 1.455 1.1953.269.3838.405.909.405 1.5571 0 1.8454-1.382 2.7433-4.225 2.7433-1.055 0-2.258-.2202-3.576-.6544-1.309-.4276-2.544-1.0539-3.662-1.8568l-.272-.1947v6.2974l.1.0464c.926.4272 2.093.7875 3.468 1.071 1.373.2837 2.62.4281 3.703.4281 3.344 0 6.036-.7919 8-2.355 1.978-1.5739 2.979-3.6724 2.979-6.2389 0-1.8516-.539-3.4393-1.602-4.7199-1.056-1.27-2.889-2.4361-5.445-3.4668-2.036-.8173-3.341-1.4959-3.879-2.0167-.519-.5032-.782-1.2148-.782-2.1159 0-.7988.325-1.4388.992-1.957.673-.5209 1.61-.7858 2.784-.7858 1.09 0 2.205.1722 3.314.5096 1.108.3373 2.081.7892 2.894 1.3419l.267.1827v-5.9737l-.103-.0441c-.749-.3214-1.738-.5965-2.938-.8197-1.195-.2217-2.279-.3336-3.222-.3336zm-27.581 23.4441c-2.373 0-4.246-.7872-5.565-2.3379-1.327-1.5585-1.998-3.7799-1.998-6.6035 0-2.9127.672-5.1923 2-6.7783 1.319-1.5756 3.172-2.3753 5.511-2.3753 2.267 0 4.072.7637 5.366 2.2712 1.3 1.5153 1.959 3.7767 1.959 6.7232 0 2.9828-.62 5.274-1.843 6.8067-1.215 1.5211-3.041 2.2939-5.43 2.2939zm.292-23.4441c-4.531 0-8.129 1.3272-10.692 3.9448-2.564 2.6179-3.864 6.2406-3.864 10.7686 0 4.3024 1.269 7.76 3.772 10.2802 2.502 2.521 5.908 3.7981 10.121 3.7981 4.39 0 7.917-1.3457 10.481-3.9996 2.563-2.6509 3.862-6.2394 3.862-10.6616 0-4.368-1.219-7.853-3.624-10.3564-2.407-2.5046-5.79-3.7741-10.056-3.7741zm-24.485 5.4187v-4.757h-6.461v27.4677h6.461v-14.0508c0-2.3892.542-4.352 1.611-5.8345 1.055-1.4649 2.461-2.2072 4.178-2.2072.582 0 1.236.0959 1.943.2858.7.1887 1.208.3936 1.507.6092l.271.1968v-6.5139l-.104-.045c-.602-.2556-1.453-.3846-2.53-.3846-1.624 0-3.077.5217-4.322 1.549-1.092.9028-1.882 2.1407-2.485 3.6845zm-18.032-5.4187c-2.964 0-5.608.6356-7.857 1.8886-2.254 1.2559-3.997 3.0489-5.182 5.3288-1.181 2.2744-1.78 4.9311-1.78 7.8939 0 2.5953.581 4.977 1.729 7.076 1.15 2.1025 2.776 3.7474 4.835 4.8882 2.057 1.1394 4.433 1.7171 7.064 1.7171 3.071 0 5.692-.6139 7.794-1.8246l.085-.0487v-5.9195l-.271.1983c-.952.6936-2.016 1.2472-3.161 1.646-1.142.3985-2.183.6-3.096.6-2.536 0-4.571-.7933-6.048-2.3573-1.481-1.5661-2.232-3.7651-2.232-6.5323 0-2.7845.783-5.0401 2.326-6.7043 1.538-1.6594 3.577-2.5011 6.06-2.5011 2.124 0 4.193.7191 6.151 2.1393l.271.1968v-6.2371l-.087-.0493c-.737-.4124-1.742-.753-2.989-1.0113-1.243-.2576-2.458-.3875-3.612-.3875zm-19.269.662h-6.462v27.4674h6.462zm-3.165-11.7013c-1.063 0-1.991.362-2.753 1.0794-.765.7194-1.153 1.6251-1.153 2.6941 0 1.0521.383 1.9414 1.141 2.6416.753.6983 1.684 1.0522 2.765 1.0522 1.082 0 2.016-.3539 2.778-1.051.767-.7014 1.156-1.5904 1.156-2.6428 0-1.0316-.379-1.9281-1.125-2.6651-.745-.7357-1.69-1.1084-2.809-1.1084zm-16.121 9.6747v29.494h6.594v-38.3279h-9.126l-11.6 28.4689-11.2577-28.4689h-9.4979v38.3276h6.1966v-29.4966h.2127l11.8873 29.4969h4.676l11.702-29.494z" fill="#706d6e"/><path d="m30.3954 30.411h-30.3954v-30.395375h30.3954z" fill="#f1511b"/><path d="m63.9551 30.411h-30.3948v-30.395375h30.3948z" fill="#80cc28"/><path d="m30.3945 63.983h-30.3945v-30.3951h30.3945z" fill="#00adef"/><path d="m63.9551 63.983h-30.3948v-30.3951h30.3948z" fill="#fbbc09"/></g></svg>