<svg fill="none" height="64" viewBox="0 0 491 64" width="491" xmlns="http://www.w3.org/2000/svg" xmlns:xlink="http://www.w3.org/1999/xlink"><clipPath id="a"><path d="m0 0h490.798v64h-490.798z"/></clipPath><g clip-path="url(#a)" fill="#5e5e5e"><path d="m419.3 25.3959v38.5664h12.327v-25.711h45.082v25.711h12.328v-38.5664zm10.918-12.5033h47.548c6.692-1.2327 11.447-7.22021 12.856-12.8554906h-73.259c1.409 5.6352806 6.34 11.4466906 12.855 12.8554906zm-48.428 51.0697c6.164-2.6415 9.51-7.2202 10.919-12.5033h-55.473v-51.245788h-12.503v63.749088zm-149.511-51.2458h44.026c6.692-1.9371 12.151-7.04411 13.56-12.503288h-69.737v37.685888h57.057v13.2077h-44.73c-7.044 1.9371-13.031 6.6919-16.025 12.8555h73.083v-38.5664h-57.058zm-108.479.1761h47.548c6.692-1.2327 11.623-7.22021 12.855-12.8554906h-73.434c1.408 5.6352806 6.339 11.4466906 13.031 12.8554906zm0 25.1826h47.548c6.692-1.2327 11.623-7.2202 12.855-12.8554h-73.434c1.408 5.6352 6.339 11.4466 13.031 12.8554zm0 25.8871h47.548c6.692-1.2327 11.623-7.2202 12.855-12.8555h-73.434c1.408 5.6353 6.339 11.6228 13.031 12.8555z"/><path d="m0 .213212c1.40882 5.635278 6.33969 11.270588 12.8555 12.679388h20.0757l1.0566.3522v50.5414h12.5032v-50.5414l1.0567-.3522h20.0756c6.6919-1.761 11.4467-7.04411 12.8555-12.679388v-.1761026z"/></g></svg>